<?xml version="1.0" encoding="UTF-8" standalone="no"?>
<!DOCTYPE svg PUBLIC "-//W3C//DTD SVG 1.1//EN"
 "http://www.w3.org/Graphics/SVG/1.1/DTD/svg11.dtd">
<!-- Generated by graphviz version 2.40.1 (20161225.0304)
 -->
<!-- Title: counter Pages: 1 -->
<svg width="310pt" height="317pt"
 viewBox="0.00 0.00 310.00 316.80" xmlns="http://www.w3.org/2000/svg" xmlns:xlink="http://www.w3.org/1999/xlink">
<g id="graph0" class="graph" transform="scale(1 1) rotate(0) translate(4 312.8)">
<title>counter</title>
<polygon fill="#ffffff" stroke="transparent" points="-4,4 -4,-312.8 306,-312.8 306,4 -4,4"/>
<g id="clust1" class="cluster">
<title>cluster_1</title>
<polygon fill="#d3d3d3" stroke="#d3d3d3" points="8,-8 8,-300.8 294,-300.8 294,-8 8,-8"/>
<text text-anchor="middle" x="151" y="-284.2" font-family="Times,serif" font-size="14.00" fill="#000000">control expression</text>
</g>
<!-- 1 -->
<g id="node1" class="node">
<title>1</title>
<ellipse fill="#ffffff" stroke="#ffffff" cx="151" cy="-250" rx="27" ry="18"/>
<text text-anchor="start" x="148.2014" y="-245.8" font-family="Times,serif" font-size="14.00" fill="#000000">||</text>
</g>
<!-- a -->
<g id="node2" class="node">
<title>a</title>
<ellipse fill="#ffffff" stroke="#ffffff" cx="115" cy="-178" rx="27" ry="18"/>
<text text-anchor="start" x="107.1054" y="-173.8" font-family="Times,serif" font-size="14.00" fill="#000000">==</text>
</g>
<!-- 1&#45;&gt;a -->
<g id="edge1" class="edge">
<title>1&#45;&gt;a</title>
<path fill="none" stroke="#000000" d="M142.2854,-232.5708C138.0403,-224.0807 132.8464,-213.6929 128.1337,-204.2674"/>
<polygon fill="#000000" stroke="#000000" points="131.237,-202.6477 123.6343,-195.2687 124.976,-205.7782 131.237,-202.6477"/>
</g>
<!-- 2 -->
<g id="node3" class="node">
<title>2</title>
<ellipse fill="#ffffff" stroke="#ffffff" cx="187" cy="-178" rx="27" ry="18"/>
<text text-anchor="start" x="184.2014" y="-173.8" font-family="Times,serif" font-size="14.00" fill="#000000">||</text>
</g>
<!-- 1&#45;&gt;2 -->
<g id="edge2" class="edge">
<title>1&#45;&gt;2</title>
<path fill="none" stroke="#000000" d="M159.7146,-232.5708C163.9597,-224.0807 169.1536,-213.6929 173.8663,-204.2674"/>
<polygon fill="#000000" stroke="#000000" points="177.024,-205.7782 178.3657,-195.2687 170.763,-202.6477 177.024,-205.7782"/>
</g>
<!-- c0 -->
<g id="node6" class="node">
<title>c0</title>
<ellipse fill="#ffffff" stroke="#ffffff" cx="43" cy="-106" rx="27" ry="18"/>
<text text-anchor="start" x="39.8927" y="-101.8" font-family="Times,serif" font-size="14.00" fill="#000000">c</text>
</g>
<!-- a&#45;&gt;c0 -->
<g id="edge5" class="edge">
<title>a&#45;&gt;c0</title>
<path fill="none" stroke="#000000" d="M99.7307,-162.7307C89.803,-152.803 76.6847,-139.6847 65.5637,-128.5637"/>
<polygon fill="#000000" stroke="#000000" points="67.7933,-125.8436 58.2473,-121.2473 62.8436,-130.7933 67.7933,-125.8436"/>
</g>
<!-- b -->
<g id="node7" class="node">
<title>b</title>
<ellipse fill="#ffffff" stroke="#ffffff" cx="115" cy="-106" rx="27" ry="18"/>
<text text-anchor="start" x="108.5894" y="-101.8" font-family="Times,serif" font-size="14.00" fill="#000000">&#39; &#39;</text>
</g>
<!-- a&#45;&gt;b -->
<g id="edge6" class="edge">
<title>a&#45;&gt;b</title>
<path fill="none" stroke="#000000" d="M115,-159.8314C115,-152.131 115,-142.9743 115,-134.4166"/>
<polygon fill="#000000" stroke="#000000" points="118.5001,-134.4132 115,-124.4133 111.5001,-134.4133 118.5001,-134.4132"/>
</g>
<!-- d -->
<g id="node4" class="node">
<title>d</title>
<ellipse fill="#ffffff" stroke="#ffffff" cx="187" cy="-106" rx="27" ry="18"/>
<text text-anchor="start" x="179.1054" y="-101.8" font-family="Times,serif" font-size="14.00" fill="#000000">==</text>
</g>
<!-- 2&#45;&gt;d -->
<g id="edge3" class="edge">
<title>2&#45;&gt;d</title>
<path fill="none" stroke="#000000" d="M187,-159.8314C187,-152.131 187,-142.9743 187,-134.4166"/>
<polygon fill="#000000" stroke="#000000" points="190.5001,-134.4132 187,-124.4133 183.5001,-134.4133 190.5001,-134.4132"/>
</g>
<!-- g -->
<g id="node5" class="node">
<title>g</title>
<ellipse fill="#ffffff" stroke="#ffffff" cx="259" cy="-106" rx="27" ry="18"/>
<text text-anchor="start" x="251.1054" y="-101.8" font-family="Times,serif" font-size="14.00" fill="#000000">==</text>
</g>
<!-- 2&#45;&gt;g -->
<g id="edge4" class="edge">
<title>2&#45;&gt;g</title>
<path fill="none" stroke="#000000" d="M202.2693,-162.7307C212.197,-152.803 225.3153,-139.6847 236.4363,-128.5637"/>
<polygon fill="#000000" stroke="#000000" points="239.1564,-130.7933 243.7527,-121.2473 234.2067,-125.8436 239.1564,-130.7933"/>
</g>
<!-- e -->
<g id="node8" class="node">
<title>e</title>
<ellipse fill="#ffffff" stroke="#ffffff" cx="43" cy="-34" rx="27" ry="18"/>
<text text-anchor="start" x="39.8927" y="-29.8" font-family="Times,serif" font-size="14.00" fill="#000000">c</text>
</g>
<!-- d&#45;&gt;e -->
<g id="edge7" class="edge">
<title>d&#45;&gt;e</title>
<path fill="none" stroke="#000000" d="M165.1295,-95.0647C140.7778,-82.8889 101.238,-63.119 73.7715,-49.3858"/>
<polygon fill="#000000" stroke="#000000" points="75.114,-46.1439 64.6045,-44.8022 71.9835,-52.4049 75.114,-46.1439"/>
</g>
<!-- f -->
<g id="node9" class="node">
<title>f</title>
<ellipse fill="#ffffff" stroke="#ffffff" cx="115" cy="-34" rx="27" ry="18"/>
<text text-anchor="start" x="104.8941" y="-29.8" font-family="Times,serif" font-size="14.00" fill="#000000">&#39;\n&#39;</text>
</g>
<!-- d&#45;&gt;f -->
<g id="edge8" class="edge">
<title>d&#45;&gt;f</title>
<path fill="none" stroke="#000000" d="M171.7307,-90.7307C161.803,-80.803 148.6847,-67.6847 137.5637,-56.5637"/>
<polygon fill="#000000" stroke="#000000" points="139.7933,-53.8436 130.2473,-49.2473 134.8436,-58.7933 139.7933,-53.8436"/>
</g>
<!-- h -->
<g id="node10" class="node">
<title>h</title>
<ellipse fill="#ffffff" stroke="#ffffff" cx="187" cy="-34" rx="27" ry="18"/>
<text text-anchor="start" x="183.8927" y="-29.8" font-family="Times,serif" font-size="14.00" fill="#000000">c</text>
</g>
<!-- g&#45;&gt;h -->
<g id="edge9" class="edge">
<title>g&#45;&gt;h</title>
<path fill="none" stroke="#000000" d="M243.7307,-90.7307C233.803,-80.803 220.6847,-67.6847 209.5637,-56.5637"/>
<polygon fill="#000000" stroke="#000000" points="211.7933,-53.8436 202.2473,-49.2473 206.8436,-58.7933 211.7933,-53.8436"/>
</g>
<!-- i -->
<g id="node11" class="node">
<title>i</title>
<ellipse fill="#ffffff" stroke="#ffffff" cx="259" cy="-34" rx="27" ry="18"/>
<text text-anchor="start" x="250.4488" y="-29.8" font-family="Times,serif" font-size="14.00" fill="#000000">&#39;\t&#39;</text>
</g>
<!-- g&#45;&gt;i -->
<g id="edge10" class="edge">
<title>g&#45;&gt;i</title>
<path fill="none" stroke="#000000" d="M259,-87.8314C259,-80.131 259,-70.9743 259,-62.4166"/>
<polygon fill="#000000" stroke="#000000" points="262.5001,-62.4132 259,-52.4133 255.5001,-62.4133 262.5001,-62.4132"/>
</g>
</g>
</svg>
