<?xml version="1.0" encoding="UTF-8" standalone="no"?>
<!DOCTYPE svg PUBLIC "-//W3C//DTD SVG 1.1//EN"
 "http://www.w3.org/Graphics/SVG/1.1/DTD/svg11.dtd">
<!-- Generated by graphviz version 2.40.1 (20161225.0304)
 -->
<!-- Title: counter Pages: 1 -->
<svg width="166pt" height="317pt"
 viewBox="0.00 0.00 166.00 316.80" xmlns="http://www.w3.org/2000/svg" xmlns:xlink="http://www.w3.org/1999/xlink">
<g id="graph0" class="graph" transform="scale(1 1) rotate(0) translate(4 312.8)">
<title>counter</title>
<polygon fill="#ffffff" stroke="transparent" points="-4,4 -4,-312.8 162,-312.8 162,4 -4,4"/>
<g id="clust1" class="cluster">
<title>cluster_0</title>
<polygon fill="#d3d3d3" stroke="#d3d3d3" points="8,-8 8,-300.8 150,-300.8 150,-8 8,-8"/>
<text text-anchor="middle" x="79" y="-284.2" font-family="Times,serif" font-size="14.00" fill="#000000">counters&#39; init</text>
</g>
<!-- a -->
<g id="node1" class="node">
<title>a</title>
<ellipse fill="#ffffff" stroke="#ffffff" cx="79" cy="-250" rx="27" ry="18"/>
<text text-anchor="start" x="75.0527" y="-245.8" font-family="Times,serif" font-size="14.00" fill="#000000">=</text>
</g>
<!-- nl -->
<g id="node2" class="node">
<title>nl</title>
<ellipse fill="#ffffff" stroke="#ffffff" cx="43" cy="-178" rx="27" ry="18"/>
<text text-anchor="middle" x="43" y="-173.8" font-family="Times,serif" font-size="14.00" fill="#000000">nl</text>
</g>
<!-- a&#45;&gt;nl -->
<g id="edge1" class="edge">
<title>a&#45;&gt;nl</title>
<path fill="none" stroke="#000000" d="M70.2854,-232.5708C66.0403,-224.0807 60.8464,-213.6929 56.1337,-204.2674"/>
<polygon fill="#000000" stroke="#000000" points="59.237,-202.6477 51.6343,-195.2687 52.976,-205.7782 59.237,-202.6477"/>
</g>
<!-- b -->
<g id="node3" class="node">
<title>b</title>
<ellipse fill="#ffffff" stroke="#ffffff" cx="115" cy="-178" rx="27" ry="18"/>
<text text-anchor="start" x="111.0527" y="-173.8" font-family="Times,serif" font-size="14.00" fill="#000000">=</text>
</g>
<!-- a&#45;&gt;b -->
<g id="edge2" class="edge">
<title>a&#45;&gt;b</title>
<path fill="none" stroke="#000000" d="M87.7146,-232.5708C91.9597,-224.0807 97.1536,-213.6929 101.8663,-204.2674"/>
<polygon fill="#000000" stroke="#000000" points="105.024,-205.7782 106.3657,-195.2687 98.763,-202.6477 105.024,-205.7782"/>
</g>
<!-- nw -->
<g id="node4" class="node">
<title>nw</title>
<ellipse fill="#ffffff" stroke="#ffffff" cx="43" cy="-106" rx="27" ry="18"/>
<text text-anchor="middle" x="43" y="-101.8" font-family="Times,serif" font-size="14.00" fill="#000000">nw</text>
</g>
<!-- b&#45;&gt;nw -->
<g id="edge3" class="edge">
<title>b&#45;&gt;nw</title>
<path fill="none" stroke="#000000" d="M99.7307,-162.7307C89.803,-152.803 76.6847,-139.6847 65.5637,-128.5637"/>
<polygon fill="#000000" stroke="#000000" points="67.7933,-125.8436 58.2473,-121.2473 62.8436,-130.7933 67.7933,-125.8436"/>
</g>
<!-- c -->
<g id="node5" class="node">
<title>c</title>
<ellipse fill="#ffffff" stroke="#ffffff" cx="115" cy="-106" rx="27" ry="18"/>
<text text-anchor="start" x="111.0527" y="-101.8" font-family="Times,serif" font-size="14.00" fill="#000000">=</text>
</g>
<!-- b&#45;&gt;c -->
<g id="edge4" class="edge">
<title>b&#45;&gt;c</title>
<path fill="none" stroke="#000000" d="M115,-159.8314C115,-152.131 115,-142.9743 115,-134.4166"/>
<polygon fill="#000000" stroke="#000000" points="118.5001,-134.4132 115,-124.4133 111.5001,-134.4133 118.5001,-134.4132"/>
</g>
<!-- nc -->
<g id="node6" class="node">
<title>nc</title>
<ellipse fill="#ffffff" stroke="#ffffff" cx="43" cy="-34" rx="27" ry="18"/>
<text text-anchor="middle" x="43" y="-29.8" font-family="Times,serif" font-size="14.00" fill="#000000">nc</text>
</g>
<!-- c&#45;&gt;nc -->
<g id="edge5" class="edge">
<title>c&#45;&gt;nc</title>
<path fill="none" stroke="#000000" d="M99.7307,-90.7307C89.803,-80.803 76.6847,-67.6847 65.5637,-56.5637"/>
<polygon fill="#000000" stroke="#000000" points="67.7933,-53.8436 58.2473,-49.2473 62.8436,-58.7933 67.7933,-53.8436"/>
</g>
<!-- 0 -->
<g id="node7" class="node">
<title>0</title>
<ellipse fill="#ffffff" stroke="#ffffff" cx="115" cy="-34" rx="27" ry="18"/>
<text text-anchor="middle" x="115" y="-29.8" font-family="Times,serif" font-size="14.00" fill="#000000">0</text>
</g>
<!-- c&#45;&gt;0 -->
<g id="edge6" class="edge">
<title>c&#45;&gt;0</title>
<path fill="none" stroke="#000000" d="M115,-87.8314C115,-80.131 115,-70.9743 115,-62.4166"/>
<polygon fill="#000000" stroke="#000000" points="118.5001,-62.4132 115,-52.4133 111.5001,-62.4133 118.5001,-62.4132"/>
</g>
</g>
</svg>
