<?xml version="1.0" encoding="UTF-8" standalone="no"?>
<!DOCTYPE svg PUBLIC "-//W3C//DTD SVG 1.1//EN"
 "http://www.w3.org/Graphics/SVG/1.1/DTD/svg11.dtd">
<!-- Generated by graphviz version 2.40.1 (20161225.0304)
 -->
<!-- Title: G Pages: 1 -->
<svg width="108pt" height="133pt"
 viewBox="0.00 0.00 107.97 132.80" xmlns="http://www.w3.org/2000/svg" xmlns:xlink="http://www.w3.org/1999/xlink">
<g id="graph0" class="graph" transform="scale(1 1) rotate(0) translate(4 128.8)">
<title>G</title>
<polygon fill="#ffffff" stroke="transparent" points="-4,4 -4,-128.8 103.9684,-128.8 103.9684,4 -4,4"/>
<!-- IN -->
<g id="node1" class="node">
<title>IN</title>
<ellipse fill="none" stroke="#000000" cx="30.8786" cy="-106.8" rx="27" ry="18"/>
<text text-anchor="middle" x="30.8786" y="-102.6" font-family="Times,serif" font-size="14.00" fill="#000000">IN</text>
</g>
<!-- IN&#45;&gt;IN -->
<g id="edge3" class="edge">
<title>IN&#45;&gt;IN</title>
<path fill="none" stroke="#000000" d="M55.4111,-114.9211C66.3864,-115.6945 75.8786,-112.9875 75.8786,-106.8 75.8786,-102.6428 71.5937,-100.0567 65.453,-99.0417"/>
<polygon fill="#000000" stroke="#000000" points="65.531,-95.5424 55.4111,-98.6789 65.2782,-102.5378 65.531,-95.5424"/>
<text text-anchor="middle" x="87.9235" y="-102.6" font-family="Times,serif" font-size="14.00" fill="#000000">char</text>
</g>
<!-- OUT -->
<g id="node2" class="node">
<title>OUT</title>
<ellipse fill="none" stroke="#000000" cx="30.8786" cy="-18" rx="30.7577" ry="18"/>
<text text-anchor="middle" x="30.8786" y="-13.8" font-family="Times,serif" font-size="14.00" fill="#000000">OUT</text>
</g>
<!-- IN&#45;&gt;OUT -->
<g id="edge1" class="edge">
<title>IN&#45;&gt;OUT</title>
<path fill="none" stroke="#000000" d="M19.9432,-90.2771C16.6406,-84.3815 13.4483,-77.5288 11.7734,-70.8 9.9699,-63.5544 9.9699,-61.2456 11.7734,-54 12.6194,-50.6013 13.8525,-47.1709 15.2915,-43.8483"/>
<polygon fill="#000000" stroke="#000000" points="18.4295,-45.3984 19.7411,-34.885 12.1595,-42.2857 18.4295,-45.3984"/>
<text text-anchor="middle" x="20.4312" y="-58.2" font-family="Times,serif" font-size="14.00" fill="#000000">eol</text>
</g>
<!-- OUT&#45;&gt;IN -->
<g id="edge2" class="edge">
<title>OUT&#45;&gt;IN</title>
<path fill="none" stroke="#000000" d="M30.8786,-36.072C30.8786,-48.2243 30.8786,-64.4958 30.8786,-78.368"/>
<polygon fill="#000000" stroke="#000000" points="27.3787,-78.4005 30.8786,-88.4006 34.3787,-78.4006 27.3787,-78.4005"/>
<text text-anchor="middle" x="42.9235" y="-58.2" font-family="Times,serif" font-size="14.00" fill="#000000">char</text>
</g>
</g>
</svg>
