<?xml version="1.0" encoding="UTF-8" standalone="no"?>
<!DOCTYPE svg PUBLIC "-//W3C//DTD SVG 1.1//EN"
 "http://www.w3.org/Graphics/SVG/1.1/DTD/svg11.dtd">
<!-- Generated by graphviz version 2.40.1 (20161225.0304)
 -->
<!-- Title: G Pages: 1 -->
<svg width="178pt" height="133pt"
 viewBox="0.00 0.00 178.49 132.80" xmlns="http://www.w3.org/2000/svg" xmlns:xlink="http://www.w3.org/1999/xlink">
<g id="graph0" class="graph" transform="scale(1 1) rotate(0) translate(4 128.8)">
<title>G</title>
<polygon fill="#ffffff" stroke="transparent" points="-4,4 -4,-128.8 174.4913,-128.8 174.4913,4 -4,4"/>
<!-- IN -->
<g id="node1" class="node">
<title>IN</title>
<ellipse fill="none" stroke="#000000" cx="48.9106" cy="-106.8" rx="27" ry="18"/>
<text text-anchor="middle" x="48.9106" y="-102.6" font-family="Times,serif" font-size="14.00" fill="#000000">IN</text>
</g>
<!-- IN&#45;&gt;IN -->
<g id="edge4" class="edge">
<title>IN&#45;&gt;IN</title>
<path fill="none" stroke="#000000" d="M73.4431,-114.9211C84.4185,-115.6945 93.9106,-112.9875 93.9106,-106.8 93.9106,-102.6428 89.6257,-100.0567 83.485,-99.0417"/>
<polygon fill="#000000" stroke="#000000" points="83.563,-95.5424 73.4431,-98.6789 83.3102,-102.5378 83.563,-95.5424"/>
<text text-anchor="start" x="93.9106" y="-102.6" font-family="Times,serif" font-size="14.00" fill="#000000">mostrar letra</text>
</g>
<!-- OUT -->
<g id="node2" class="node">
<title>OUT</title>
<ellipse fill="none" stroke="#000000" cx="48.9106" cy="-18" rx="30.7577" ry="18"/>
<text text-anchor="middle" x="48.9106" y="-13.8" font-family="Times,serif" font-size="14.00" fill="#000000">OUT</text>
</g>
<!-- IN&#45;&gt;OUT -->
<g id="edge1" class="edge">
<title>IN&#45;&gt;OUT</title>
<path fill="none" stroke="#000000" d="M26.9874,-95.8373C17.5294,-89.847 7.4492,-81.4564 2.2086,-70.8 -4.2151,-57.7376 5.4126,-45.415 17.5625,-35.9648"/>
<polygon fill="#000000" stroke="#000000" points="19.604,-38.8079 25.7676,-30.1904 15.5754,-33.0834 19.604,-38.8079"/>
<text text-anchor="start" x="2.9106" y="-58.2" font-family="Times,serif" font-size="14.00" fill="#000000">mostrar salto</text>
</g>
<!-- OUT&#45;&gt;IN -->
<g id="edge2" class="edge">
<title>OUT&#45;&gt;IN</title>
<path fill="none" stroke="#000000" d="M63.7409,-33.9971C68.2311,-39.8506 72.5861,-46.8111 74.9106,-54 77.2079,-61.1045 77.2079,-63.6955 74.9106,-70.8 73.5497,-75.0088 71.4928,-79.1393 69.1203,-83.0153"/>
<polygon fill="#000000" stroke="#000000" points="66.0422,-81.3103 63.1905,-91.5141 71.783,-85.3157 66.0422,-81.3103"/>
<text text-anchor="start" x="75.9106" y="-58.2" font-family="Times,serif" font-size="14.00" fill="#000000"> &#160;&#160;mostrar letra</text>
</g>
<!-- OUT&#45;&gt;OUT -->
<g id="edge3" class="edge">
<title>OUT&#45;&gt;OUT</title>
<path fill="none" stroke="#000000" d="M76.5471,-26.1775C88.0438,-26.7415 97.7893,-24.0156 97.7893,-18 97.7893,-13.8643 93.183,-11.2835 86.5682,-10.2576"/>
<polygon fill="#000000" stroke="#000000" points="86.6896,-6.7597 76.5471,-9.8225 86.3859,-13.7531 86.6896,-6.7597"/>
<text text-anchor="start" x="97.7893" y="-13.8" font-family="Times,serif" font-size="14.00" fill="#000000">mostrar salto</text>
</g>
</g>
</svg>
