<?xml version="1.0" encoding="UTF-8" standalone="no"?>
<!DOCTYPE svg PUBLIC "-//W3C//DTD SVG 1.1//EN"
 "http://www.w3.org/Graphics/SVG/1.1/DTD/svg11.dtd">
<!-- Generated by graphviz version 2.40.1 (20161225.0304)
 -->
<!-- Title: G Pages: 1 -->
<svg width="189pt" height="133pt"
 viewBox="0.00 0.00 189.12 132.80" xmlns="http://www.w3.org/2000/svg" xmlns:xlink="http://www.w3.org/1999/xlink">
<g id="graph0" class="graph" transform="scale(1 1) rotate(0) translate(4 128.8)">
<title>G</title>
<polygon fill="#ffffff" stroke="transparent" points="-4,4 -4,-128.8 185.1177,-128.8 185.1177,4 -4,4"/>
<!-- IN -->
<g id="node1" class="node">
<title>IN</title>
<ellipse fill="none" stroke="#000000" cx="49.4739" cy="-106.8" rx="27" ry="18"/>
<text text-anchor="middle" x="49.4739" y="-102.6" font-family="Times,serif" font-size="14.00" fill="#000000">IN</text>
</g>
<!-- IN&#45;&gt;IN -->
<g id="edge4" class="edge">
<title>IN&#45;&gt;IN</title>
<path fill="none" stroke="#000000" d="M74.0064,-114.9211C84.9817,-115.6945 94.4739,-112.9875 94.4739,-106.8 94.4739,-102.6428 90.189,-100.0567 84.0482,-99.0417"/>
<polygon fill="#000000" stroke="#000000" points="84.1263,-95.5424 74.0064,-98.6789 83.8734,-102.5378 84.1263,-95.5424"/>
<text text-anchor="start" x="94.4739" y="-102.6" font-family="Times,serif" font-size="14.00" fill="#000000">mostrar letra</text>
</g>
<!-- OUT -->
<g id="node2" class="node">
<title>OUT</title>
<ellipse fill="none" stroke="#000000" cx="49.4739" cy="-18" rx="30.7577" ry="18"/>
<text text-anchor="middle" x="49.4739" y="-13.8" font-family="Times,serif" font-size="14.00" fill="#000000">OUT</text>
</g>
<!-- IN&#45;&gt;OUT -->
<g id="edge1" class="edge">
<title>IN&#45;&gt;OUT</title>
<path fill="none" stroke="#000000" d="M27.3037,-95.8936C17.7378,-89.9157 7.5403,-81.5191 2.2319,-70.8 -4.2609,-57.6891 5.4784,-45.3631 17.7677,-35.923"/>
<polygon fill="#000000" stroke="#000000" points="19.8514,-38.7372 26.0668,-30.157 15.8573,-32.9885 19.8514,-38.7372"/>
<text text-anchor="start" x="2.4739" y="-58.2" font-family="Times,serif" font-size="14.00" fill="#000000">mostrar enter</text>
</g>
<!-- OUT&#45;&gt;IN -->
<g id="edge2" class="edge">
<title>OUT&#45;&gt;IN</title>
<path fill="none" stroke="#000000" d="M64.8663,-33.912C69.5286,-39.7587 74.0528,-46.7366 76.4739,-54 78.8351,-61.0835 78.8351,-63.7165 76.4739,-70.8 75.0171,-75.1705 72.7988,-79.4377 70.2471,-83.4173"/>
<polygon fill="#000000" stroke="#000000" points="67.3481,-81.4528 64.2949,-91.5982 73.0084,-85.5712 67.3481,-81.4528"/>
<text text-anchor="start" x="77.4739" y="-58.2" font-family="Times,serif" font-size="14.00" fill="#000000"> &#160;&#160;mostrar letra</text>
</g>
<!-- OUT&#45;&gt;OUT -->
<g id="edge3" class="edge">
<title>OUT&#45;&gt;OUT</title>
<path fill="none" stroke="#000000" d="M77.1104,-26.1775C88.607,-26.7415 98.3525,-24.0156 98.3525,-18 98.3525,-13.8643 93.7463,-11.2835 87.1315,-10.2576"/>
<polygon fill="#000000" stroke="#000000" points="87.2528,-6.7597 77.1104,-9.8225 86.9491,-13.7531 87.2528,-6.7597"/>
<text text-anchor="start" x="98.3525" y="-13.8" font-family="Times,serif" font-size="14.00" fill="#000000">contar caracter</text>
</g>
</g>
</svg>
